<svg width="60" height="60" viewBox="0 0 60 60" fill="none" xmlns="http://www.w3.org/2000/svg">
<path d="M57.2689 41.399L42.8816 34.9609C42.3238 34.7195 41.7147 34.621 41.1093 34.6742C40.5039 34.7274 39.9213 34.9306 39.4142 35.2656C39.3737 35.2913 39.335 35.3198 39.2984 35.3509L31.7422 41.792C31.574 41.8946 31.3832 41.9541 31.1865 41.9652C30.9899 41.9764 30.7935 41.9389 30.6148 41.856C25.6667 39.4672 20.5449 34.3851 18.1562 29.4948C18.0717 29.3175 18.0325 29.122 18.042 28.9258C18.0516 28.7296 18.1097 28.5388 18.211 28.3705L24.6704 20.6894C24.7009 20.6528 24.7283 20.6132 24.7557 20.5736C25.0896 20.0672 25.2923 19.4857 25.3455 18.8815C25.3987 18.2772 25.3007 17.6693 25.0604 17.1123L18.6102 2.74935C18.2988 2.0219 17.7598 1.4151 17.0741 1.02009C16.3885 0.625069 15.5932 0.463152 14.8077 0.55865C10.9734 1.06419 7.45424 2.9482 4.90754 5.8588C2.36083 8.7694 0.960737 12.5075 0.968754 16.375C0.968754 39.8969 20.1031 59.0312 43.625 59.0312C47.4925 59.0392 51.2306 57.6391 54.1412 55.0924C57.0518 52.5457 58.9358 49.0266 59.4413 45.1923C59.5361 44.4104 59.3759 43.6187 58.9844 42.9352C58.593 42.2517 57.9913 41.7129 57.2689 41.399ZM57.0313 44.8876C56.601 48.1348 55.0028 51.1142 52.5354 53.2686C50.0681 55.423 46.9006 56.6051 43.625 56.5937C21.4498 56.5937 3.40625 38.5501 3.40625 16.375C3.39491 13.0994 4.57695 9.93187 6.73139 7.46453C8.88583 4.99719 11.8652 3.39898 15.1123 2.96873C15.161 2.9657 15.2099 2.9657 15.2586 2.96873C15.499 2.97078 15.7335 3.0439 15.9325 3.1789C16.1314 3.3139 16.286 3.50474 16.3768 3.7274L22.8088 18.0904C22.8838 18.2659 22.9166 18.4566 22.9044 18.6472C22.8922 18.8377 22.8355 19.0227 22.7387 19.1872L16.2823 26.8654C16.2519 26.905 16.2214 26.9415 16.194 26.9842C15.85 27.5102 15.6474 28.116 15.6058 28.7431C15.5642 29.3702 15.6849 29.9974 15.9563 30.5643C18.6041 35.9847 24.0641 41.4051 29.5454 44.0528C30.1161 44.3225 30.7469 44.4398 31.3764 44.3933C32.0059 44.3469 32.6127 44.1382 33.1377 43.7877L33.2504 43.7024L40.8158 37.2674C40.9776 37.1685 41.1606 37.1095 41.3497 37.0952C41.5388 37.0809 41.7287 37.1117 41.9035 37.1851L56.2878 43.6323C56.5306 43.7334 56.7341 43.9102 56.8681 44.1364C57.0021 44.3627 57.0593 44.6262 57.0313 44.8876Z" fill="white"/>
</svg>
