<svg width="37" height="27" viewBox="0 0 37 27" fill="none" xmlns="http://www.w3.org/2000/svg">
<path d="M18.134 17.917C18.1474 19.0652 17.9206 20.2036 17.468 21.2589C17.0154 22.3143 16.3471 23.2633 15.506 24.045C14.7252 24.8607 13.7856 25.5077 12.745 25.9459C11.7044 26.3842 10.585 26.6044 9.45595 26.593C8.1446 26.6403 6.8407 26.3763 5.65108 25.8225C4.46146 25.2687 3.41997 24.4409 2.61195 23.407C0.938862 21.3711 0.0618627 18.7969 0.143955 16.163C0.143955 10.9103 4.60096 5.84368 13.515 0.963013L14.789 2.95101C11.7663 5.44701 10.254 7.46368 10.252 9.00101C10.252 9.48101 10.8883 9.95935 12.161 10.436C13.5696 10.8597 14.8906 11.533 16.061 12.424C17.4363 13.5933 18.126 15.4243 18.13 17.917M36.913 17.917C36.9557 20.1948 36.097 22.3972 34.524 24.045C33.7316 24.866 32.7791 25.5158 31.7256 25.954C30.6721 26.3923 29.5399 26.6098 28.399 26.593C27.087 26.6409 25.7823 26.3771 24.5919 25.8233C23.4016 25.2695 22.3594 24.4414 21.551 23.407C19.8341 21.3913 18.9271 18.8097 19.006 16.163C19.006 10.909 23.4636 5.84235 32.379 0.963013L33.81 2.95101C30.6766 5.44701 29.11 7.46368 29.11 9.00101C29.11 9.48101 29.7996 9.95935 31.179 10.436C32.5611 10.8667 33.8556 11.5399 35.002 12.424C36.2746 13.5933 36.9123 15.4243 36.913 17.917Z" fill="white"/>
</svg>
